<svg xmlns="http://www.w3.org/2000/svg" version="1.1" xmlns:xlink="http://www.w3.org/1999/xlink" xmlns:svgjs="http://svgjs.dev/svgjs" width="1000" height="1000" viewBox="0 0 1000 1000"><rect width="1000" height="1000" fill="#000000"></rect><g transform="matrix(0.7,0,0,0.7,150.00028437500004,106.25)"><svg viewBox="0 0 320 360" data-background-color="#77d4fc" preserveAspectRatio="xMidYMid meet" height="1125" width="1000" xmlns="http://www.w3.org/2000/svg" xmlns:xlink="http://www.w3.org/1999/xlink"><g id="tight-bounds" transform="matrix(1,0,0,1,-0.00013000000001284207,0)"><svg viewBox="0 0 320 360" height="360" width="320"><g><svg></svg></g><g><svg viewBox="0 0 320 360" height="360" width="320"><g><path transform="translate(-40.79862,-27.54029) scale(4.05392,4.05392)" d="M89 41.809l-4.923-4.923v-6.962l-13.274-13.274h-6.962l-4.923-4.923h-18.772l-4.923 4.923h-6.962l-13.274 13.274v6.962l-4.923 4.923v18.773l4.923 4.923v6.962l13.275 13.273h6.962l4.923 4.923h18.773l4.923-4.923h6.962l13.274-13.274v-6.962l4.921-4.923zM70.345 17.755l12.627 12.627v5.399l-18.026-18.026zM82.972 37.344v27.703l-19.588 19.588h-27.703l-19.589-19.589v-27.702l19.589-19.589h27.703zM40.604 12.832h17.857l3.818 3.818h-25.493zM16.092 30.382l12.627-12.627h5.399l-18.026 18.026zM11.17 60.124v-17.858l3.818-3.818v25.492zM28.719 84.635l-12.627-12.627v-5.399l18.026 18.026zM58.461 89.558h-17.857l-3.818-3.818h25.492zM82.972 72.008l-12.627 12.627h-5.399l18.026-18.026zM87.895 60.124l-3.818 3.818v-25.493l3.818 3.818z" fill="#ffffff" fill-rule="nonzero" stroke="none" stroke-width="1" stroke-linecap="butt" stroke-linejoin="miter" stroke-miterlimit="10" stroke-dasharray="" stroke-dashoffset="0" font-family="none" font-weight="none" font-size="none" text-anchor="none" style="mix-blend-mode: normal" data-fill-palette-color="tertiary"></path></g><g transform="matrix(1,0,0,1,56,141.99473360492948)"><svg viewBox="0 0 208 76.01053279014106" height="76.01053279014106" width="208"><g><svg viewBox="0 0 209.03999999999996 76.39058545409175" height="76.01053279014106" width="208"><g><rect width="209.03999999999996" height="2.339742738495413" x="0" y="41.98090759633028" fill="#ffffff" opacity="1" stroke-width="0" stroke="transparent" fill-opacity="1" class="rect-s$-0" data-fill-palette-color="primary" rx="1%" id="s$-0" data-palette-color="#0080ff"></rect></g><g transform="matrix(1,0,0,1,0.5199999999999818,50.445631325651384)"><svg viewBox="0 0 208 25.94495412844037" height="25.94495412844037" width="208"><g id="textblocktransform"><svg viewBox="0 0 208 25.94495412844037" height="25.94495412844037" width="208" id="textblock"><g><svg viewBox="0 0 208 25.94495412844037" height="25.94495412844037" width="208"><g transform="matrix(1,0,0,1,0,0)"><svg width="208" viewBox="1.1 -34.3 287.88 35.349999999999994" height="25.94495412844037" data-palette-color="#0080ff"><g class="undefined-text-0" data-fill-palette-color="primary" id="text-0"><path d="M32.2-13.05L32.2-11.15Q32.2-4.15 31.45 0L31.45 0 1.4 0 1.1-1.6Q2.95-3 5.35-4.2L5.35-4.2 5.35-29.9 1.5-30.55 1.55-33.3 19.8-33.3 20.1-31.7Q18.25-30.3 15.85-29.1L15.85-29.1 15.85-5.05 23.75-5.95 26.25-13.6 32.2-13.05ZM57.4-11.35L63.15-10.9Q63.25-5.95 62.55 0L62.55 0 33.55 0 33.25-1.6Q35.1-3 37.5-4.2L37.5-4.2 37.5-29.9 33.7-30.55 33.75-33.3 63-33.3Q63.1-31.45 62.8-28.23 62.5-25 61.95-22.55L61.95-22.55 56.2-22.55 55.2-27.85 48-28.35 48-18.8 58.15-19.65 58.15-13.9 48-14.3 48-5.05 55.45-5.7 57.4-11.35ZM100.95-12.9L97.15-11.8 97.15-3.35 85.6 1 83.95 1.05Q77.5 1.05 73.47-1.55 69.45-4.15 67.72-8.05 66-11.95 66-16.05L66-16.05Q66-23.9 71.4-29.1 76.8-34.3 85.3-34.3L85.3-34.3Q91.85-34.3 96.55-31.25L96.55-31.25 96.6-30.25Q96.6-25.95 95.35-21.5L95.35-21.5 89.2-21.5 87.4-28Q83.95-29.05 80.35-29.1L80.35-29.1Q78.4-27.2 77.37-24.13 76.35-21.05 76.35-17.65L76.35-17.65Q76.35-11.95 79.05-8.5 81.75-5.05 86.15-5.05L86.15-5.05 87.85-5.1 87.85-10.95Q85-12.35 83.35-13.6L83.35-13.6 83.65-15.25 100.9-15.25 100.95-12.9ZM118.99-34.3L118.99-34.3Q126.44-34.3 131.29-29.25 136.14-24.2 136.14-16.15L136.14-16.15Q136.14-8.35 131.49-3.68 126.84 1 119.34 1L119.34 1Q111.64 1 106.84-3.8 102.04-8.6 102.04-16.4L102.04-16.4Q102.04-24.25 106.82-29.28 111.59-34.3 118.99-34.3ZM115.79-28.4L115.79-28.4Q114.54-27.15 113.77-24.3 112.99-21.45 112.99-17.5L112.99-17.5Q112.99-11.35 114.94-7.8 116.89-4.25 120.24-4.25L120.24-4.25Q121.09-4.25 122.09-4.65L122.09-4.65Q123.49-6.15 124.34-9.22 125.19-12.3 125.19-16.05L125.19-16.05Q125.19-21.45 123.44-25.2 121.69-28.95 118.34-28.95L118.34-28.95Q117.14-28.95 115.79-28.4ZM188.89-33.3L189.19-31.7Q187.64-30.45 185.54-29.4L185.54-29.4 177.09-0.1Q173.79 0.5 168.34 0.9L168.34 0.9 163.14-15.15 161.89-9.25 159.09-0.1Q155.79 0.5 150.34 0.9L150.34 0.9 140.09-29.95 136.74-30.55 136.79-33.3 154.34-33.3 154.64-31.7Q152.99-30.4 150.74-29.25L150.74-29.25 154.69-14.7 154.94-7.2 155.24-7.2 160.14-24.35 157.94-31.15 167.69-33.2 172.69-15.75 173.09-7.2 173.14-7.2 179.24-29.75 174.59-30.55 174.64-33.3 188.89-33.3ZM214.24-11.35L219.99-10.9Q220.09-5.95 219.39 0L219.39 0 190.39 0 190.09-1.6Q191.94-3 194.34-4.2L194.34-4.2 194.34-29.9 190.54-30.55 190.59-33.3 219.84-33.3Q219.94-31.45 219.64-28.23 219.34-25 218.79-22.55L218.79-22.55 213.04-22.55 212.04-27.85 204.84-28.35 204.84-18.8 214.99-19.65 214.99-13.9 204.84-14.3 204.84-5.05 212.29-5.7 214.24-11.35ZM254.69-13.05L254.69-11.15Q254.69-4.15 253.94 0L253.94 0 223.89 0 223.59-1.6Q225.44-3 227.84-4.2L227.84-4.2 227.84-29.9 223.99-30.55 224.04-33.3 242.29-33.3 242.59-31.7Q240.74-30.3 238.34-29.1L238.34-29.1 238.34-5.05 246.24-5.95 248.74-13.6 254.69-13.05ZM288.88-33.6L288.93-33.6 288.98-32.45Q288.98-30.2 288.63-26.65 288.28-23.1 287.83-20.95L287.83-20.95 282.48-20.95 281.68-28.65 277.23-29.15 277.23-3.55 281.83-2.75 281.78 0 262.28 0 261.98-1.6Q263.53-2.85 266.73-4.4L266.73-4.4 266.73-29.15 262.18-28.65 261.38-20.95 256.08-20.95Q254.93-26.2 254.93-32.2L254.93-32.2 254.98-33.6 272.03-33.4 288.88-33.6Z" fill="#ffffff" data-fill-palette-color="primary"></path></g></svg></g></svg></g></svg></g></svg></g><g transform="matrix(1,0,0,1,86.59203669724769,0)"><svg viewBox="0 0 35.85592660550459 35.85592660550459" height="35.85592660550459" width="35.85592660550459"><g><svg xmlns="http://www.w3.org/2000/svg" xmlns:xlink="http://www.w3.org/1999/xlink" version="1.0" x="0" y="0" viewBox="1 1 48 48" enable-background="new 0 0 50 50" xml:space="preserve" height="35.85592660550459" width="35.85592660550459" class="icon-icon-0" data-fill-palette-color="accent" id="icon-0"><g fill="#0023ff" data-fill-palette-color="accent"><g fill="#0023ff" data-fill-palette-color="accent"><rect x="1" y="1" fill="#ffffff" width="23" height="5" data-fill-palette-color="accent"></rect><rect x="1" y="10" fill="#ffffff" width="23" height="5" data-fill-palette-color="accent"></rect><rect x="1" y="19" fill="#ffffff" width="23" height="5" data-fill-palette-color="accent"></rect></g><g fill="#0023ff" data-fill-palette-color="accent"><rect x="26" y="26" fill="#ffffff" width="23" height="5" data-fill-palette-color="accent"></rect><rect x="26" y="35" fill="#ffffff" width="23" height="5" data-fill-palette-color="accent"></rect><rect x="26" y="44" fill="#ffffff" width="23" height="5" data-fill-palette-color="accent"></rect></g><g fill="#0023ff" data-fill-palette-color="accent"><rect x="19" y="26" fill="#ffffff" width="5" height="23" data-fill-palette-color="accent"></rect><rect x="10" y="26" fill="#ffffff" width="5" height="23" data-fill-palette-color="accent"></rect><rect x="1" y="26" fill="#ffffff" width="5" height="23" data-fill-palette-color="accent"></rect></g><g fill="#0023ff" data-fill-palette-color="accent"><rect x="44" y="1" fill="#ffffff" width="5" height="23" data-fill-palette-color="accent"></rect><rect x="35" y="1" fill="#ffffff" width="5" height="23" data-fill-palette-color="accent"></rect><rect x="26" y="1" fill="#ffffff" width="5" height="23" data-fill-palette-color="accent"></rect></g></g></svg></g></svg></g><g></g></svg></g></svg></g></svg></g><defs></defs></svg><rect width="320" height="360" fill="none" stroke="none" visibility="hidden"></rect></g></svg></g></svg>